<?xml version="1.0" encoding="utf-8"?>
<svg version="1.1" id="Layer_1" x="0px" y="0px" viewBox="0 0 122.88 101.37" style="enable-background:new 0 0 122.88 101.37" xmlns="http://www.w3.org/2000/svg" xmlns:xlink="http://www.w3.org/1999/xlink" xmlns:bx="https://boxy-svg.com">
  <defs>
    <path id="text-path-0" d="M 29.29899787902832 32.99370768641256 Q 48.58599662780762 21.522743225097656 67.87299537658691 32.99370768641256"/>
    <style bx:fonts="Charm">@import url(https://fonts.googleapis.com/css2?family=Charm%3Aital%2Cwght%400%2C400%3B0%2C700&amp;display=swap);</style>
  </defs>
  <path d="M 43.942 76.207 L 44.034 59.902 L 42.194 59.902 L 42.194 80.652 C 44.725 79.995 47.262 79.581 49.821 79.563 C 52.182 79.548 54.54 79.879 56.906 80.679 C 55.435 79.487 53.798 78.612 52.049 78.043 C 49.845 77.323 47.466 77.086 45.024 77.294 C 44.473 77.339 43.991 76.93 43.942 76.38 C 43.938 76.322 43.938 76.263 43.942 76.207 Z M 70.956 59.049 C 70.952 59.001 70.945 58.951 70.945 58.898 C 70.945 58.848 70.948 58.797 70.956 58.747 L 70.956 55.444 C 68.642 55.224 66.254 55.482 64.169 56.27 C 62.222 57.009 60.541 58.222 59.447 59.963 L 59.447 78.77 C 61.146 77.635 62.884 76.704 64.669 76.069 C 66.702 75.342 68.791 74.999 70.956 75.172 L 70.956 59.049 Z M 72.96 57.896 L 75.674 57.896 C 76.227 57.896 76.675 58.345 76.675 58.898 L 76.675 81.956 C 76.675 82.508 76.227 82.957 75.674 82.957 C 75.562 82.957 75.451 82.937 75.351 82.902 C 72.562 82.104 69.788 81.574 67.041 81.555 C 64.363 81.537 61.686 82.01 59 83.194 C 58.834 83.304 58.635 83.362 58.43 83.358 C 58.228 83.362 58.031 83.304 57.86 83.194 C 55.177 82.006 52.499 81.537 49.821 81.555 C 47.073 81.574 44.303 82.104 41.508 82.902 C 41.407 82.937 41.298 82.957 41.183 82.957 C 40.639 82.96 40.192 82.511 40.192 81.958 L 40.192 58.898 C 40.192 58.345 40.639 57.896 41.192 57.896 L 44.043 57.896 L 44.063 54.554 C 44.065 54.071 44.404 53.677 44.859 53.581 C 47.491 53.031 50.694 53.168 53.497 54.243 C 55.435 54.985 57.198 56.17 58.482 57.88 C 59.782 56.285 61.514 55.138 63.464 54.398 C 66.131 53.386 69.208 53.144 72.103 53.566 C 72.602 53.639 72.957 54.07 72.957 54.557 L 72.957 57.896 L 72.96 57.896 Z M 60.418 80.528 C 62.631 79.834 64.838 79.548 67.049 79.559 C 69.606 79.574 72.145 79.992 74.673 80.644 L 74.673 59.902 L 72.96 59.902 L 72.96 76.296 C 72.96 76.849 72.513 77.298 71.962 77.298 C 71.88 77.298 71.802 77.289 71.729 77.27 C 69.536 76.927 67.414 77.21 65.342 77.951 C 63.674 78.548 62.033 79.437 60.418 80.528 Z M 57.446 78.578 L 57.446 59.932 C 56.399 58.084 54.704 56.845 52.788 56.114 C 50.618 55.283 48.18 55.092 46.054 55.398 L 45.943 75.234 C 48.262 75.15 50.529 75.445 52.664 76.143 C 54.362 76.695 55.971 77.505 57.446 78.578 Z" style="fill: rgb(153, 121, 91);"/>
  <text style="fill: rgb(153, 121, 91); font-family: Charm; font-size: 10.3px; letter-spacing: 0.3px; word-spacing: 1.4px; white-space: pre;" transform="matrix(2.789531, 0, 0, 2.789531, -76.288857, -28.274961)"><textPath startOffset="1" xlink:href="#text-path-0">BookClub
</textPath></text>
</svg>